<svg width="47" height="33" viewBox="0 0 47 33" fill="none" xmlns="http://www.w3.org/2000/svg">
<g filter="url(#filter0_ii_108_512)">
<path fill-rule="evenodd" clip-rule="evenodd" d="M45.0984 17C43.1969 22.6974 45.1177 13.5 45.0984 21.8732L22.9543 21.5075C21.2783 21.4798 19.9048 22.8309 19.9048 24.5071V31L2.49999 19C1.07382 17.4788 0.80761 19.0545 1.99999 17.5C3.19238 15.9455 15.5 6.5 19.9048 2.5V11.7161C19.9048 12.2926 20.391 12.7497 20.9664 12.7142L45.0984 11.2251C45.0984 21.8732 44.0985 10.6974 45.0984 17Z" fill="url(#paint0_linear_108_512)"/>
</g>
<path d="M45.0902 22.3731L45.5972 22.3815L45.5984 21.8743C45.6008 20.8198 45.5728 20.0322 45.5242 19.4517C45.4766 18.8822 45.4067 18.4768 45.3088 18.2089C45.2936 18.1673 45.2755 18.1226 45.2535 18.0771C45.3464 17.8227 45.4523 17.519 45.5727 17.1583L45.6114 17.0424L45.5922 16.9217C45.5311 16.5363 45.4771 16.214 45.4296 15.9465C45.4383 15.9 45.4459 15.8522 45.4528 15.8038C45.5368 15.2146 45.5984 13.8808 45.5984 11.2251V10.6933L45.0676 10.7261L20.9356 12.2152C20.6479 12.2329 20.4048 12.0044 20.4048 11.7161V2.5V1.37056L19.5687 2.12985C17.542 3.97031 13.823 6.97799 10.2793 9.84401C9.99583 10.0733 9.7135 10.3016 9.43324 10.5283C7.54551 12.0557 5.75416 13.5099 4.35984 14.6799C3.66287 15.2647 3.06174 15.7813 2.59585 16.2022C2.14116 16.6129 1.78434 16.9596 1.60326 17.1957C1.32374 17.5601 1.14534 17.7205 1.06557 17.7832C1.03082 17.8105 1.01252 17.8211 1.00593 17.825L1.00479 17.8256L0.994788 17.8315L0.994535 17.8317C0.991326 17.8336 0.97932 17.8408 0.965433 17.8504C0.958276 17.8553 0.943691 17.8656 0.926535 17.88C0.914972 17.8897 0.873443 17.9246 0.834653 17.9813C0.807339 18.0212 0.684197 18.2146 0.786068 18.4575C0.879629 18.6806 1.0807 18.7369 1.11267 18.7458L1.11271 18.7458C1.17066 18.7621 1.21807 18.7637 1.23238 18.7642C1.25264 18.7648 1.26879 18.7641 1.27672 18.7637C1.29153 18.7629 1.30399 18.7616 1.30712 18.7612L1.30754 18.7612L1.31299 18.7606L1.31574 18.7603L1.31667 18.7601L1.3172 18.7601C1.22142 18.7696 1.50022 18.6647 2.13524 19.342L2.17197 19.3811L2.21618 19.4116L19.621 31.4117L20.4048 31.9521V31V24.5071C20.4048 23.1102 21.5494 21.9844 22.9461 22.0074L45.0902 22.3731Z" stroke="#577F0B" stroke-linecap="round"/>
<defs>
<filter id="filter0_ii_108_512" x="-0.754395" y="-0.758881" width="47.8788" height="35.663" filterUnits="userSpaceOnUse" color-interpolation-filters="sRGB">
<feFlood flood-opacity="0" result="BackgroundImageFix"/>
<feBlend mode="normal" in="SourceGraphic" in2="BackgroundImageFix" result="shape"/>
<feColorMatrix in="SourceAlpha" type="matrix" values="0 0 0 0 0 0 0 0 0 0 0 0 0 0 0 0 0 0 127 0" result="hardAlpha"/>
<feOffset dx="1" dy="2"/>
<feGaussianBlur stdDeviation="1"/>
<feComposite in2="hardAlpha" operator="arithmetic" k2="-1" k3="1"/>
<feColorMatrix type="matrix" values="0 0 0 0 0.841313 0 0 0 0 0.899398 0 0 0 0 0.173336 0 0 0 1 0"/>
<feBlend mode="normal" in2="shape" result="effect1_innerShadow_108_512"/>
<feColorMatrix in="SourceAlpha" type="matrix" values="0 0 0 0 0 0 0 0 0 0 0 0 0 0 0 0 0 0 127 0" result="hardAlpha"/>
<feOffset dx="-1" dy="-2"/>
<feGaussianBlur stdDeviation="0.5"/>
<feComposite in2="hardAlpha" operator="arithmetic" k2="-1" k3="1"/>
<feColorMatrix type="matrix" values="0 0 0 0 0.502558 0 0 0 0 0.836898 0 0 0 0 0.370515 0 0 0 1 0"/>
<feBlend mode="normal" in2="effect1_innerShadow_108_512" result="effect2_innerShadow_108_512"/>
</filter>
<linearGradient id="paint0_linear_108_512" x1="32.7395" y1="27.9577" x2="23.2651" y2="10.1936" gradientUnits="userSpaceOnUse">
<stop stop-color="#71B937"/>
<stop offset="1" stop-color="#99E93F"/>
</linearGradient>
</defs>
</svg>
