<svg width="214" height="88" viewBox="0 0 214 88" fill="none" xmlns="http://www.w3.org/2000/svg">
<g filter="url(#filter0_dd_29_143)">
<mask id="path-1-inside-1_29_143" fill="white">
<path fill-rule="evenodd" clip-rule="evenodd" d="M1 54.5V42.4098H3.58331C8.20056 32.1462 18.5157 25 30.5 25H183.5C195.484 25 205.799 32.1462 210.417 42.4098H213V54.5V54.9836H212.996C212.738 71.0529 199.631 84 183.5 84H30.5C14.3691 84 1.26216 71.0529 1.00388 54.9836H1V54.5Z"/>
</mask>
<path fill-rule="evenodd" clip-rule="evenodd" d="M1 54.5V42.4098H3.58331C8.20056 32.1462 18.5157 25 30.5 25H183.5C195.484 25 205.799 32.1462 210.417 42.4098H213V54.5V54.9836H212.996C212.738 71.0529 199.631 84 183.5 84H30.5C14.3691 84 1.26216 71.0529 1.00388 54.9836H1V54.5Z" fill="url(#paint0_linear_29_143)"/>
<path d="M1 42.4098V41.4098H0V42.4098H1ZM3.58331 42.4098V43.4098H4.22997L4.49528 42.8201L3.58331 42.4098ZM210.417 42.4098L209.505 42.8201L209.77 43.4098H210.417V42.4098ZM213 42.4098H214V41.4098H213V42.4098ZM213 54.9836V55.9836H214V54.9836H213ZM212.996 54.9836V53.9836H212.012L211.996 54.9675L212.996 54.9836ZM1.00388 54.9836L2.00375 54.9675L1.98794 53.9836H1.00388V54.9836ZM1 54.9836H0V55.9836H1V54.9836ZM2 54.5V42.4098H0V54.5H2ZM1 43.4098H3.58331V41.4098H1V43.4098ZM4.49528 42.8201C8.95699 32.9022 18.9235 26 30.5 26V24C18.1079 24 7.44413 31.3902 2.67134 41.9996L4.49528 42.8201ZM30.5 26H183.5V24H30.5V26ZM183.5 26C195.076 26 205.043 32.9022 209.505 42.8201L211.329 41.9996C206.556 31.3902 195.892 24 183.5 24V26ZM210.417 43.4098H213V41.4098H210.417V43.4098ZM212 42.4098V54.5H214V42.4098H212ZM212 54.5V54.9836H214V54.5H212ZM213 53.9836H212.996V55.9836H213V53.9836ZM211.996 54.9675C211.747 70.4918 199.084 83 183.5 83V85C200.178 85 213.729 71.6141 213.996 54.9997L211.996 54.9675ZM183.5 83H30.5V85H183.5V83ZM30.5 83C14.916 83 2.25327 70.4918 2.00375 54.9675L0.004013 54.9997C0.27105 71.6141 13.8222 85 30.5 85V83ZM1.00388 53.9836H1V55.9836H1.00388V53.9836ZM2 54.9836V54.5H0V54.9836H2Z" fill="#8DCC2E" mask="url(#path-1-inside-1_29_143)"/>
<rect x="1" y="14" width="212" height="61" rx="30.5" fill="url(#paint1_linear_29_143)"/>
<rect x="1" y="14" width="212" height="61" rx="30.5" fill="url(#paint2_linear_29_143)"/>
<mask id="mask0_29_143" style="mask-type:alpha" maskUnits="userSpaceOnUse" x="1" y="14" width="212" height="61">
<rect x="1" y="14" width="212" height="61" rx="30.5" fill="#74BE39"/>
</mask>
<g mask="url(#mask0_29_143)">
<ellipse cx="105.835" cy="4.49998" rx="146.769" ry="45.5" fill="#91D742"/>
</g>
<rect x="2" y="15" width="210" height="59" rx="29.5" stroke="url(#paint3_linear_29_143)" stroke-width="2"/>
<rect x="2" y="15" width="210" height="59" rx="29.5" stroke="url(#paint4_linear_29_143)" stroke-width="2"/>
<g opacity="0.8" filter="url(#filter1_f_29_143)">
<ellipse cx="13.2221" cy="3.33256" rx="13.2221" ry="3.33256" transform="matrix(0.999931 -0.0117484 0.107618 0.994192 154 68.3107)" fill="white"/>
</g>
<g filter="url(#filter2_d_29_143)">
<mask id="path-10-outside-2_29_143" maskUnits="userSpaceOnUse" x="38" y="30" width="138" height="29" fill="black">
<rect fill="white" x="38" y="30" width="138" height="29"/>
<path d="M50.448 57.576C58.26 57.576 62.184 53.688 62.184 49.08C62.184 39.792 48.252 42.312 48.252 39.288C48.252 38.424 49.044 37.704 51.528 37.704C53.724 37.704 56.064 38.316 58.548 39.576L61.104 33.42C58.476 31.944 54.984 31.224 51.6 31.224C43.788 31.224 39.864 35.04 39.864 39.72C39.864 49.116 53.796 46.56 53.796 49.728C53.796 50.592 52.932 51.096 50.52 51.096C47.748 51.096 44.58 50.196 42.204 48.792L39.468 54.984C41.988 56.532 46.236 57.576 50.448 57.576ZM72.5326 57H81.0286V38.388H88.4086V31.8H65.1526V38.388H72.5326V57ZM110.914 57H119.698L108.682 31.8H100.33L89.3137 57H97.9537L99.6457 52.608H109.222L110.914 57ZM101.986 46.488L104.434 40.152L106.882 46.488H101.986ZM138.838 57H147.91L142.618 49.224C145.642 47.676 147.37 44.94 147.37 41.304C147.37 35.472 142.906 31.8 135.886 31.8H123.754V57H132.25V50.664H134.554L138.838 57ZM138.802 41.304C138.802 43.14 137.686 44.256 135.346 44.256H132.25V38.352H135.346C137.686 38.352 138.802 39.468 138.802 41.304ZM158.398 57H166.894V38.388H174.274V31.8H151.018V38.388H158.398V57Z"/>
</mask>
<path d="M50.448 57.576C58.26 57.576 62.184 53.688 62.184 49.08C62.184 39.792 48.252 42.312 48.252 39.288C48.252 38.424 49.044 37.704 51.528 37.704C53.724 37.704 56.064 38.316 58.548 39.576L61.104 33.42C58.476 31.944 54.984 31.224 51.6 31.224C43.788 31.224 39.864 35.04 39.864 39.72C39.864 49.116 53.796 46.56 53.796 49.728C53.796 50.592 52.932 51.096 50.52 51.096C47.748 51.096 44.58 50.196 42.204 48.792L39.468 54.984C41.988 56.532 46.236 57.576 50.448 57.576ZM72.5326 57H81.0286V38.388H88.4086V31.8H65.1526V38.388H72.5326V57ZM110.914 57H119.698L108.682 31.8H100.33L89.3137 57H97.9537L99.6457 52.608H109.222L110.914 57ZM101.986 46.488L104.434 40.152L106.882 46.488H101.986ZM138.838 57H147.91L142.618 49.224C145.642 47.676 147.37 44.94 147.37 41.304C147.37 35.472 142.906 31.8 135.886 31.8H123.754V57H132.25V50.664H134.554L138.838 57ZM138.802 41.304C138.802 43.14 137.686 44.256 135.346 44.256H132.25V38.352H135.346C137.686 38.352 138.802 39.468 138.802 41.304ZM158.398 57H166.894V38.388H174.274V31.8H151.018V38.388H158.398V57Z" fill="white"/>
<path d="M58.548 39.576L58.0956 40.4678C58.3439 40.5938 58.6334 40.6105 58.8946 40.514C59.1557 40.4175 59.3648 40.2166 59.4716 39.9595L58.548 39.576ZM61.104 33.42L62.0276 33.8035C62.2218 33.3355 62.0355 32.7962 61.5937 32.5481L61.104 33.42ZM42.204 48.792L42.7127 47.9311C42.4668 47.7857 42.1705 47.7525 41.8985 47.8398C41.6265 47.9271 41.4048 48.1265 41.2893 48.3878L42.204 48.792ZM39.468 54.984L38.5533 54.5798C38.3511 55.0375 38.5182 55.5742 38.9446 55.8361L39.468 54.984ZM50.448 58.576C54.5111 58.576 57.6849 57.565 59.8658 55.8404C62.0633 54.1026 63.184 51.6895 63.184 49.08H61.184C61.184 51.0785 60.3427 52.9134 58.6252 54.2716C56.8911 55.6429 54.1969 56.576 50.448 56.576V58.576ZM63.184 49.08C63.184 46.4649 62.1847 44.6035 60.6571 43.2969C59.1764 42.0305 57.2568 41.3336 55.4705 40.8674C54.569 40.6321 53.673 40.4489 52.8563 40.2856C52.0269 40.1197 51.2975 39.9776 50.6767 39.8188C50.0411 39.6562 49.624 39.5005 49.3815 39.3486C49.1639 39.2122 49.252 39.1932 49.252 39.288H47.252C47.252 40.1388 47.7755 40.7025 48.3198 41.0435C48.8392 41.3688 49.5105 41.5849 50.181 41.7564C50.8664 41.9317 51.6608 42.0861 52.4641 42.2467C53.28 42.4099 54.1255 42.5834 54.9655 42.8026C56.6622 43.2454 58.2256 43.849 59.3571 44.8168C60.4418 45.7445 61.184 47.0511 61.184 49.08H63.184ZM49.252 39.288C49.252 39.2336 49.2408 39.1613 49.4513 39.0421C49.7379 38.8798 50.3517 38.704 51.528 38.704V36.704C50.2203 36.704 49.1961 36.8882 48.4657 37.3019C47.6592 37.7586 47.252 38.4784 47.252 39.288H49.252ZM51.528 38.704C53.5347 38.704 55.7201 39.2628 58.0956 40.4678L59.0004 38.6842C56.4079 37.3691 53.9133 36.704 51.528 36.704V38.704ZM59.4716 39.9595L62.0276 33.8035L60.1804 33.0365L57.6244 39.1925L59.4716 39.9595ZM61.5937 32.5481C58.7768 30.966 55.1038 30.224 51.6 30.224V32.224C54.8642 32.224 58.1752 32.922 60.6143 34.2919L61.5937 32.5481ZM51.6 30.224C47.5412 30.224 44.3671 31.2149 42.1844 32.9309C39.9824 34.6621 38.864 37.0775 38.864 39.72H40.864C40.864 37.6824 41.7076 35.8499 43.4206 34.5031C45.1529 33.1411 47.8468 32.224 51.6 32.224V30.224ZM38.864 39.72C38.864 42.358 39.8599 44.2363 41.3862 45.5581C42.8662 46.8399 44.7858 47.5479 46.5716 48.0255C47.4726 48.2665 48.3684 48.4557 49.1839 48.6256C50.0121 48.7982 50.7402 48.9475 51.3584 49.1145C51.9913 49.2854 52.4054 49.4491 52.6462 49.6082C52.758 49.6821 52.7937 49.7303 52.8001 49.7403C52.8025 49.7438 52.8001 49.7409 52.7978 49.7331C52.7954 49.7252 52.796 49.722 52.796 49.728H54.796C54.796 48.8827 54.2997 48.3035 53.7485 47.9394C53.2274 47.5951 52.5531 47.3654 51.8798 47.1836C51.1919 46.9979 50.3962 46.8353 49.5918 46.6677C48.7746 46.4974 47.9289 46.3182 47.0884 46.0934C45.3912 45.6395 43.8278 45.0268 42.6955 44.0463C41.6096 43.1057 40.864 41.7799 40.864 39.72H38.864ZM52.796 49.728C52.796 49.7681 52.7894 49.7536 52.8054 49.7309C52.8152 49.717 52.7925 49.7606 52.6505 49.8248C52.3342 49.9678 51.6926 50.096 50.52 50.096V52.096C51.7594 52.096 52.7558 51.9722 53.4745 51.6472C53.85 51.4774 54.1941 51.233 54.4413 50.8815C54.6946 50.5213 54.796 50.1199 54.796 49.728H52.796ZM50.52 50.096C47.9341 50.096 44.9409 49.2477 42.7127 47.9311L41.6953 49.6529C44.2191 51.1443 47.5619 52.096 50.52 52.096V50.096ZM41.2893 48.3878L38.5533 54.5798L40.3827 55.3882L43.1187 49.1962L41.2893 48.3878ZM38.9446 55.8361C41.667 57.5084 46.1122 58.576 50.448 58.576V56.576C46.3598 56.576 42.309 55.5556 39.9914 54.1319L38.9446 55.8361ZM72.5326 57H71.5326C71.5326 57.5523 71.9803 58 72.5326 58V57ZM81.0286 57V58C81.5809 58 82.0286 57.5523 82.0286 57H81.0286ZM81.0286 38.388V37.388C80.4763 37.388 80.0286 37.8357 80.0286 38.388H81.0286ZM88.4086 38.388V39.388C88.9609 39.388 89.4086 38.9403 89.4086 38.388H88.4086ZM88.4086 31.8H89.4086C89.4086 31.2477 88.9609 30.8 88.4086 30.8V31.8ZM65.1526 31.8V30.8C64.6003 30.8 64.1526 31.2477 64.1526 31.8H65.1526ZM65.1526 38.388H64.1526C64.1526 38.9403 64.6003 39.388 65.1526 39.388V38.388ZM72.5326 38.388H73.5326C73.5326 37.8357 73.0849 37.388 72.5326 37.388V38.388ZM72.5326 58H81.0286V56H72.5326V58ZM82.0286 57V38.388H80.0286V57H82.0286ZM81.0286 39.388H88.4086V37.388H81.0286V39.388ZM89.4086 38.388V31.8H87.4086V38.388H89.4086ZM88.4086 30.8H65.1526V32.8H88.4086V30.8ZM64.1526 31.8V38.388H66.1526V31.8H64.1526ZM65.1526 39.388H72.5326V37.388H65.1526V39.388ZM71.5326 38.388V57H73.5326V38.388H71.5326ZM110.914 57L109.981 57.3595C110.129 57.7454 110.5 58 110.914 58V57ZM119.698 57V58C120.035 58 120.35 57.8298 120.534 57.5475C120.719 57.2651 120.749 56.9086 120.614 56.5994L119.698 57ZM108.682 31.8L109.598 31.3994C109.439 31.0353 109.079 30.8 108.682 30.8V31.8ZM100.33 31.8V30.8C99.9323 30.8 99.5726 31.0353 99.4134 31.3994L100.33 31.8ZM89.3137 57L88.3974 56.5994C88.2622 56.9086 88.2921 57.2651 88.4768 57.5475C88.6616 57.8298 88.9762 58 89.3137 58V57ZM97.9537 57V58C98.3672 58 98.7381 57.7454 98.8868 57.3595L97.9537 57ZM99.6457 52.608V51.608C99.2321 51.608 98.8612 51.8626 98.7125 52.2485L99.6457 52.608ZM109.222 52.608L110.155 52.2485C110.006 51.8626 109.635 51.608 109.222 51.608V52.608ZM101.986 46.488L101.053 46.1276C100.934 46.4352 100.974 46.7816 101.161 47.0535C101.347 47.3254 101.656 47.488 101.986 47.488V46.488ZM104.434 40.152L105.366 39.7916C105.218 39.4061 104.847 39.152 104.434 39.152C104.02 39.152 103.65 39.4061 103.501 39.7916L104.434 40.152ZM106.882 46.488V47.488C107.211 47.488 107.52 47.3254 107.706 47.0535C107.893 46.7816 107.933 46.4352 107.814 46.1276L106.882 46.488ZM110.914 58H119.698V56H110.914V58ZM120.614 56.5994L109.598 31.3994L107.765 32.2005L118.781 57.4005L120.614 56.5994ZM108.682 30.8H100.33V32.8H108.682V30.8ZM99.4134 31.3994L88.3974 56.5994L90.2299 57.4005L101.246 32.2005L99.4134 31.3994ZM89.3137 58H97.9537V56H89.3137V58ZM98.8868 57.3595L100.579 52.9675L98.7125 52.2485L97.0205 56.6405L98.8868 57.3595ZM99.6457 53.608H109.222V51.608H99.6457V53.608ZM108.289 52.9675L109.981 57.3595L111.847 56.6405L110.155 52.2485L108.289 52.9675ZM102.918 46.8484L105.366 40.5124L103.501 39.7916L101.053 46.1276L102.918 46.8484ZM103.501 40.5124L105.949 46.8484L107.814 46.1276L105.366 39.7916L103.501 40.5124ZM106.882 45.488H101.986V47.488H106.882V45.488ZM138.838 57L138.009 57.5601C138.195 57.8352 138.506 58 138.838 58V57ZM147.91 57V58C148.28 58 148.62 57.7951 148.793 57.4676C148.967 57.1401 148.945 56.7437 148.736 56.4374L147.91 57ZM142.618 49.224L142.162 48.3338C141.907 48.4645 141.72 48.6986 141.649 48.9765C141.578 49.2545 141.629 49.5495 141.791 49.7866L142.618 49.224ZM123.754 31.8V30.8C123.201 30.8 122.754 31.2477 122.754 31.8H123.754ZM123.754 57H122.754C122.754 57.5523 123.201 58 123.754 58V57ZM132.25 57V58C132.802 58 133.25 57.5523 133.25 57H132.25ZM132.25 50.664V49.664C131.697 49.664 131.25 50.1117 131.25 50.664H132.25ZM134.554 50.664L135.382 50.1039C135.196 49.8288 134.886 49.664 134.554 49.664V50.664ZM132.25 44.256H131.25C131.25 44.8083 131.697 45.256 132.25 45.256V44.256ZM132.25 38.352V37.352C131.697 37.352 131.25 37.7997 131.25 38.352H132.25ZM138.838 58H147.91V56H138.838V58ZM148.736 56.4374L143.444 48.6614L141.791 49.7866L147.083 57.5626L148.736 56.4374ZM143.073 50.1141C146.435 48.3933 148.37 45.3115 148.37 41.304H146.37C146.37 44.5685 144.848 46.9586 142.162 48.3338L143.073 50.1141ZM148.37 41.304C148.37 38.1111 147.136 35.4442 144.897 33.5941C142.678 31.761 139.56 30.8 135.886 30.8V32.8C139.231 32.8 141.855 33.675 143.623 35.1359C145.371 36.5797 146.37 38.6649 146.37 41.304H148.37ZM135.886 30.8H123.754V32.8H135.886V30.8ZM122.754 31.8V57H124.754V31.8H122.754ZM123.754 58H132.25V56H123.754V58ZM133.25 57V50.664H131.25V57H133.25ZM132.25 51.664H134.554V49.664H132.25V51.664ZM133.725 51.2241L138.009 57.5601L139.666 56.4399L135.382 50.1039L133.725 51.2241ZM137.802 41.304C137.802 42.0148 137.592 42.4491 137.286 42.7214C136.962 43.0104 136.372 43.256 135.346 43.256V45.256C136.66 45.256 137.798 44.9436 138.616 44.2156C139.453 43.4708 139.802 42.4292 139.802 41.304H137.802ZM135.346 43.256H132.25V45.256H135.346V43.256ZM133.25 44.256V38.352H131.25V44.256H133.25ZM132.25 39.352H135.346V37.352H132.25V39.352ZM135.346 39.352C136.372 39.352 136.962 39.5976 137.286 39.8866C137.592 40.1588 137.802 40.5932 137.802 41.304H139.802C139.802 40.1788 139.453 39.1371 138.616 38.3924C137.798 37.6644 136.66 37.352 135.346 37.352V39.352ZM158.398 57H157.398C157.398 57.5523 157.846 58 158.398 58V57ZM166.894 57V58C167.447 58 167.894 57.5523 167.894 57H166.894ZM166.894 38.388V37.388C166.342 37.388 165.894 37.8357 165.894 38.388H166.894ZM174.274 38.388V39.388C174.827 39.388 175.274 38.9403 175.274 38.388H174.274ZM174.274 31.8H175.274C175.274 31.2477 174.827 30.8 174.274 30.8V31.8ZM151.018 31.8V30.8C150.466 30.8 150.018 31.2477 150.018 31.8H151.018ZM151.018 38.388H150.018C150.018 38.9403 150.466 39.388 151.018 39.388V38.388ZM158.398 38.388H159.398C159.398 37.8357 158.951 37.388 158.398 37.388V38.388ZM158.398 58H166.894V56H158.398V58ZM167.894 57V38.388H165.894V57H167.894ZM166.894 39.388H174.274V37.388H166.894V39.388ZM175.274 38.388V31.8H173.274V38.388H175.274ZM174.274 30.8H151.018V32.8H174.274V30.8ZM150.018 31.8V38.388H152.018V31.8H150.018ZM151.018 39.388H158.398V37.388H151.018V39.388ZM157.398 38.388V57H159.398V38.388H157.398Z" fill="#58942D" mask="url(#path-10-outside-2_29_143)"/>
</g>
</g>
<g filter="url(#filter3_f_29_143)">
<ellipse cx="8.87456" cy="2.63848" rx="8.87456" ry="2.63848" transform="matrix(0.995427 -0.0955249 0.190576 0.981672 21.5684 15.8832)" fill="#F9E530"/>
</g>
<g filter="url(#filter4_f_29_143)">
<ellipse cx="8.87456" cy="2.63848" rx="8.87456" ry="2.63848" transform="matrix(0.995427 -0.0955249 0.190576 0.981672 18.5684 13.8832)" fill="#F9E530"/>
</g>
<g filter="url(#filter5_f_29_143)">
<ellipse cx="8.87456" cy="2.63848" rx="8.87456" ry="2.63848" transform="matrix(0.995427 -0.0955249 0.190576 0.981672 15.5684 14.8832)" fill="#F9E530"/>
</g>
<g filter="url(#filter6_f_29_143)">
<ellipse cx="8.87456" cy="3.20275" rx="8.87456" ry="3.20275" transform="matrix(0.999702 -0.0244109 0.1202 0.99275 156.748 68.7344)" fill="#F9E530"/>
</g>
<ellipse cx="2.91188" cy="0.744681" rx="2.91188" ry="0.744681" transform="matrix(0.999987 0.00507906 -0.0122235 0.999925 164.04 73.1404)" fill="white"/>
<g filter="url(#filter7_f_29_143)">
<ellipse cx="8.87456" cy="4.60491" rx="8.87456" ry="4.60491" transform="matrix(0.995427 -0.0955249 0.190576 0.981672 18 13.6955)" fill="white"/>
</g>
<ellipse cx="3.18585" cy="1.25884" rx="3.18585" ry="1.25884" transform="matrix(0.995427 -0.0955249 0.190576 0.981672 23.5273 14.4292)" fill="white"/>
<g filter="url(#filter8_f_29_143)">
<path d="M131.5 74H182" stroke="#FFF505" stroke-width="0.6" stroke-linecap="round" stroke-linejoin="round"/>
</g>
<defs>
<filter id="filter0_dd_29_143" x="0" y="14" width="214" height="74" filterUnits="userSpaceOnUse" color-interpolation-filters="sRGB">
<feFlood flood-opacity="0" result="BackgroundImageFix"/>
<feColorMatrix in="SourceAlpha" type="matrix" values="0 0 0 0 0 0 0 0 0 0 0 0 0 0 0 0 0 0 127 0" result="hardAlpha"/>
<feOffset dy="3"/>
<feGaussianBlur stdDeviation="0.5"/>
<feColorMatrix type="matrix" values="0 0 0 0 0.92549 0 0 0 0 0.894118 0 0 0 0 0.815686 0 0 0 1 0"/>
<feBlend mode="normal" in2="BackgroundImageFix" result="effect1_dropShadow_29_143"/>
<feColorMatrix in="SourceAlpha" type="matrix" values="0 0 0 0 0 0 0 0 0 0 0 0 0 0 0 0 0 0 127 0" result="hardAlpha"/>
<feOffset dy="1"/>
<feGaussianBlur stdDeviation="0.5"/>
<feColorMatrix type="matrix" values="0 0 0 0 0.128597 0 0 0 0 0.104621 0 0 0 0 0.104621 0 0 0 0.4 0"/>
<feBlend mode="normal" in2="effect1_dropShadow_29_143" result="effect2_dropShadow_29_143"/>
<feBlend mode="normal" in="SourceGraphic" in2="effect2_dropShadow_29_143" result="shape"/>
</filter>
<filter id="filter1_f_29_143" x="142.354" y="56.1516" width="50.4522" height="30.6338" filterUnits="userSpaceOnUse" color-interpolation-filters="sRGB">
<feFlood flood-opacity="0" result="BackgroundImageFix"/>
<feBlend mode="normal" in="SourceGraphic" in2="BackgroundImageFix" result="shape"/>
<feGaussianBlur stdDeviation="6" result="effect1_foregroundBlur_29_143"/>
</filter>
<filter id="filter2_d_29_143" x="38.468" y="31.224" width="136.806" height="28.352" filterUnits="userSpaceOnUse" color-interpolation-filters="sRGB">
<feFlood flood-opacity="0" result="BackgroundImageFix"/>
<feColorMatrix in="SourceAlpha" type="matrix" values="0 0 0 0 0 0 0 0 0 0 0 0 0 0 0 0 0 0 127 0" result="hardAlpha"/>
<feOffset dy="1"/>
<feGaussianBlur stdDeviation="0.5"/>
<feColorMatrix type="matrix" values="0 0 0 0 0.3744 0 0 0 0 0.632764 0 0 0 0 0.150951 0 0 0 1 0"/>
<feBlend mode="normal" in2="BackgroundImageFix" result="effect1_dropShadow_29_143"/>
<feBlend mode="normal" in="SourceGraphic" in2="effect1_dropShadow_29_143" result="shape"/>
</filter>
<filter id="filter3_f_29_143" x="10.0567" y="2.89953" width="41.6971" height="29.4521" filterUnits="userSpaceOnUse" color-interpolation-filters="sRGB">
<feFlood flood-opacity="0" result="BackgroundImageFix"/>
<feBlend mode="normal" in="SourceGraphic" in2="BackgroundImageFix" result="shape"/>
<feGaussianBlur stdDeviation="6" result="effect1_foregroundBlur_29_143"/>
</filter>
<filter id="filter4_f_29_143" x="7.0567" y="0.899529" width="41.6971" height="29.4521" filterUnits="userSpaceOnUse" color-interpolation-filters="sRGB">
<feFlood flood-opacity="0" result="BackgroundImageFix"/>
<feBlend mode="normal" in="SourceGraphic" in2="BackgroundImageFix" result="shape"/>
<feGaussianBlur stdDeviation="6" result="effect1_foregroundBlur_29_143"/>
</filter>
<filter id="filter5_f_29_143" x="4.0567" y="1.89953" width="41.6971" height="29.4521" filterUnits="userSpaceOnUse" color-interpolation-filters="sRGB">
<feFlood flood-opacity="0" result="BackgroundImageFix"/>
<feBlend mode="normal" in="SourceGraphic" in2="BackgroundImageFix" result="shape"/>
<feGaussianBlur stdDeviation="6" result="effect1_foregroundBlur_29_143"/>
</filter>
<filter id="filter6_f_29_143" x="145.125" y="56.5102" width="41.7608" height="30.374" filterUnits="userSpaceOnUse" color-interpolation-filters="sRGB">
<feFlood flood-opacity="0" result="BackgroundImageFix"/>
<feBlend mode="normal" in="SourceGraphic" in2="BackgroundImageFix" result="shape"/>
<feGaussianBlur stdDeviation="6" result="effect1_foregroundBlur_29_143"/>
</filter>
<filter id="filter7_f_29_143" x="6.83344" y="0.768124" width="41.7563" height="33.2003" filterUnits="userSpaceOnUse" color-interpolation-filters="sRGB">
<feFlood flood-opacity="0" result="BackgroundImageFix"/>
<feBlend mode="normal" in="SourceGraphic" in2="BackgroundImageFix" result="shape"/>
<feGaussianBlur stdDeviation="6" result="effect1_foregroundBlur_29_143"/>
</filter>
<filter id="filter8_f_29_143" x="130.2" y="72.7" width="53.1" height="2.6" filterUnits="userSpaceOnUse" color-interpolation-filters="sRGB">
<feFlood flood-opacity="0" result="BackgroundImageFix"/>
<feBlend mode="normal" in="SourceGraphic" in2="BackgroundImageFix" result="shape"/>
<feGaussianBlur stdDeviation="0.5" result="effect1_foregroundBlur_29_143"/>
</filter>
<linearGradient id="paint0_linear_29_143" x1="197.857" y1="75.5" x2="18.4732" y2="76.1784" gradientUnits="userSpaceOnUse">
<stop stop-color="#6FA835"/>
<stop offset="0.514303" stop-color="#7CB435"/>
<stop offset="1" stop-color="#538D2B"/>
</linearGradient>
<linearGradient id="paint1_linear_29_143" x1="107" y1="14" x2="107" y2="75" gradientUnits="userSpaceOnUse">
<stop stop-color="#BBF341"/>
<stop offset="1" stop-color="#90DE0B"/>
</linearGradient>
<linearGradient id="paint2_linear_29_143" x1="104.67" y1="39.5" x2="106.388" y2="103.017" gradientUnits="userSpaceOnUse">
<stop stop-color="#74BE39"/>
<stop offset="1" stop-color="#74BE39" stop-opacity="0"/>
</linearGradient>
<linearGradient id="paint3_linear_29_143" x1="127.385" y1="65" x2="112.159" y2="-12.0199" gradientUnits="userSpaceOnUse">
<stop stop-color="#90D447"/>
<stop offset="1" stop-color="#EEFF2D"/>
</linearGradient>
<linearGradient id="paint4_linear_29_143" x1="120.978" y1="63.5" x2="122.268" y2="81.5327" gradientUnits="userSpaceOnUse">
<stop stop-color="#90D447" stop-opacity="0"/>
<stop offset="1" stop-color="#EBFF00"/>
</linearGradient>
</defs>
</svg>
