<svg width="255" height="96" viewBox="0 0 255 96" fill="none" xmlns="http://www.w3.org/2000/svg">
<g filter="url(#filter0_d_29_14)">
<path d="M59.3684 64.3821L54.2604 32.126C53.7299 28.7761 50.5303 26.5314 47.1998 27.1727L45.5 27.5L4.92187 39.4848C3.54146 39.8926 3.03074 41.5811 3.95378 42.6855L18.3301 59.8867C19.6154 61.4245 20.048 63.5024 19.4831 65.4254L12.8404 88.0408C12.3695 89.644 13.9892 91.2016 15.5925 90.7313C20.163 89.3906 29.2465 87.0439 45.4374 83.9634C54.5933 82.2214 60.8262 73.5876 59.3684 64.3821Z" fill="url(#paint0_linear_29_14)"/>
<path d="M54.0629 32.1573L59.1709 64.4134C60.6113 73.5094 54.4526 82.0446 45.4 83.767C29.2046 86.8482 20.1145 89.1964 15.5362 90.5394C14.0769 90.9675 12.6082 89.5408 13.0322 88.0972L19.675 65.4817C20.2587 63.4947 19.8117 61.3475 18.4836 59.7584L4.10724 42.5573C3.2765 41.5633 3.73615 40.0436 4.97852 39.6767L45.5473 27.6946L47.2376 27.3691C50.4571 26.7492 53.5501 28.919 54.0629 32.1573Z" stroke="url(#paint1_linear_29_14)" stroke-width="0.4"/>
</g>
<path d="M52.6684 66.6977L48.5672 38.5594C48.2478 36.3682 46.7476 34.5311 44.6646 33.7802L44.4422 33.7001C43.1836 33.2464 41.8095 33.2264 40.5382 33.6432L13.3796 42.5477C12.7138 42.766 12.4731 43.5835 12.9144 44.1277L24.2523 58.1112C25.965 60.2236 26.4874 63.0613 25.6391 65.6451L20.1913 82.2382C19.9431 82.9943 20.629 83.7333 21.4003 83.5374C24.3305 82.7934 31.2568 81.0815 44.9973 77.9023C50.0768 76.727 53.4204 71.8569 52.6684 66.6977Z" stroke="url(#paint2_linear_29_14)" stroke-width="1.3" stroke-linecap="round" stroke-linejoin="round" stroke-dasharray="5 5"/>
<path fill-rule="evenodd" clip-rule="evenodd" d="M34.0476 29.7891L42.9059 70.2843C46.4123 71.1723 49.0744 73.4639 51 79C52.2293 82.5345 47.5196 83.4082 39.0545 84.9785L39.0545 84.9785C36.1231 85.5223 32.7414 86.1497 29 87C25.3841 87.8218 22.5548 88.6356 20.3368 89.2736C16.536 90.3668 14.5298 90.9438 13.4354 90.1605C13.982 90.6936 14.7893 90.9669 15.5925 90.7313C20.1629 89.3906 29.2464 87.0439 45.4373 83.9634C54.5933 82.2214 60.8262 73.5876 59.3684 64.3821L54.0918 31.0615C53.6302 28.1465 51.1171 26 48.1657 26H46.5113C45.8734 26 45.2396 26.1017 44.6338 26.3013L34.0476 29.7891Z" fill="#C0554B"/>
<g filter="url(#filter1_d_29_14)">
<path d="M195.632 64.3821L200.74 32.126C201.27 28.7761 204.47 26.5314 207.8 27.1727L209.5 27.5L250.078 39.4848C251.459 39.8926 251.969 41.5811 251.046 42.6855L236.67 59.8867C235.385 61.4245 234.952 63.5024 235.517 65.4254L242.16 88.0408C242.631 89.644 241.011 91.2016 239.407 90.7313C234.837 89.3906 225.754 87.0439 209.563 83.9634C200.407 82.2214 194.174 73.5876 195.632 64.3821Z" fill="url(#paint3_linear_29_14)"/>
<path d="M200.937 32.1573L195.829 64.4134C194.389 73.5094 200.547 82.0446 209.6 83.767C225.795 86.8482 234.886 89.1964 239.464 90.5394C240.923 90.9675 242.392 89.5408 241.968 88.0972L235.325 65.4817C234.741 63.4947 235.188 61.3475 236.516 59.7584L250.893 42.5573C251.723 41.5633 251.264 40.0436 250.021 39.6767L209.453 27.6946L207.762 27.3691C204.543 26.7492 201.45 28.919 200.937 32.1573Z" stroke="url(#paint4_linear_29_14)" stroke-width="0.4"/>
</g>
<path d="M202.332 66.6977L206.433 38.5594C206.752 36.3682 208.252 34.5311 210.335 33.7802L210.558 33.7001C211.816 33.2464 213.19 33.2264 214.462 33.6432L241.62 42.5477C242.286 42.766 242.527 43.5835 242.086 44.1277L230.748 58.1112C229.035 60.2236 228.513 63.0613 229.361 65.6451L234.809 82.2382C235.057 82.9943 234.371 83.7333 233.6 83.5374C230.67 82.7934 223.743 81.0815 210.003 77.9023C204.923 76.727 201.58 71.8569 202.332 66.6977Z" stroke="url(#paint5_linear_29_14)" stroke-width="1.3" stroke-linecap="round" stroke-linejoin="round" stroke-dasharray="5 5"/>
<path fill-rule="evenodd" clip-rule="evenodd" d="M220.952 29.7891L212.094 70.2843C208.588 71.1723 205.926 73.4639 204 79C202.771 82.5345 207.48 83.4082 215.945 84.9785L215.946 84.9785C218.877 85.5223 222.259 86.1497 226 87C229.616 87.8218 232.445 88.6356 234.663 89.2736C238.464 90.3668 240.47 90.9438 241.565 90.1605C241.018 90.6936 240.211 90.9669 239.407 90.7313C234.837 89.3906 225.754 87.0439 209.563 83.9634C200.407 82.2214 194.174 73.5876 195.632 64.3821L200.908 31.0615C201.37 28.1465 203.883 26 206.834 26H208.489C209.127 26 209.76 26.1017 210.366 26.3013L220.952 29.7891Z" fill="#C0554B"/>
<g filter="url(#filter2_d_29_14)">
<path d="M29.033 22.1869C28.4372 19.311 29.9934 16.4517 32.783 15.5332C45.3456 11.3971 81.5171 1 127.696 1C173.868 1 209.143 11.3943 221.355 15.5316C224.082 16.4554 225.606 19.2458 225.062 22.073L216.158 68.3173C215.475 71.8642 211.839 74.0476 208.355 73.0966C195.297 69.5328 164.044 62.2099 127.696 62.2099C91.1635 62.2099 59.4631 69.6071 46.3741 73.1505C42.9296 74.0829 39.344 71.951 38.62 68.4567L29.033 22.1869Z" fill="url(#paint6_linear_29_14)"/>
<path d="M29.2778 22.1361C28.7063 19.378 30.1988 16.6472 32.8612 15.7707C45.4086 11.6395 81.5525 1.25 127.696 1.25C173.832 1.25 209.079 11.6366 221.275 15.7683C223.877 16.6498 225.339 19.3142 224.816 22.0257L215.912 68.27C215.258 71.6691 211.769 73.7695 208.42 72.8554C195.351 69.2885 164.074 61.9599 127.696 61.9599C91.1328 61.9599 59.4088 69.3628 46.3088 72.9091C42.9989 73.8052 39.5587 71.7549 38.8648 68.406L29.2778 22.1361Z" stroke="url(#paint7_linear_29_14)" stroke-width="0.5"/>
</g>
<path fill-rule="evenodd" clip-rule="evenodd" d="M125.589 5.88104C126.388 5.87266 127.188 5.86841 127.989 5.86841C128.774 5.86841 129.558 5.8724 130.341 5.88027C130.673 5.8836 130.939 6.16313 130.936 6.50462C130.932 6.84611 130.661 7.12023 130.329 7.11689C129.55 7.10907 128.77 7.1051 127.989 7.1051C127.192 7.1051 126.396 7.10933 125.601 7.11767C125.269 7.12114 124.997 6.84714 124.994 6.50565C124.99 6.16417 125.257 5.88452 125.589 5.88104ZM134.421 6.57382C134.43 6.23246 134.707 5.96366 135.039 5.97345C136.609 6.01974 138.174 6.08087 139.733 6.1559C140.065 6.17186 140.321 6.46133 140.306 6.80246C140.29 7.14359 140.009 7.4072 139.677 7.39124C138.125 7.31655 136.567 7.2557 135.004 7.20963C134.672 7.19984 134.411 6.91518 134.421 6.57382ZM121.41 6.57975C121.42 6.9211 121.159 7.20606 120.828 7.21623C119.234 7.26508 117.643 7.32954 116.057 7.4086C115.725 7.42512 115.443 7.162 115.427 6.8209C115.411 6.4798 115.667 6.18988 115.998 6.17336C117.592 6.09394 119.19 6.02918 120.792 5.98009C121.124 5.96992 121.401 6.2384 121.41 6.57975ZM143.785 7.0013C143.806 6.6605 144.092 6.40196 144.423 6.42384C145.993 6.52747 147.554 6.64446 149.108 6.77382C149.439 6.80138 149.685 7.09966 149.658 7.44005C149.632 7.78044 149.342 8.03404 149.011 8.00648C147.464 7.87766 145.909 7.76117 144.346 7.65798C144.015 7.63611 143.763 7.3421 143.785 7.0013ZM111.85 7.03226C111.872 7.37302 111.621 7.66756 111.29 7.69013C109.696 7.7988 108.108 7.92138 106.527 8.05685C106.196 8.0852 105.905 7.83229 105.878 7.49197C105.85 7.15165 106.096 6.85278 106.427 6.82443C108.014 6.6884 109.609 6.56529 111.211 6.45615C111.542 6.43357 111.828 6.69151 111.85 7.03226ZM153.132 7.75853C153.164 7.41863 153.458 7.16986 153.789 7.20288C155.357 7.35963 156.915 7.52828 158.462 7.70777C158.792 7.74605 159.029 8.05218 158.992 8.39153C158.954 8.73088 158.657 8.97494 158.327 8.93666C156.786 8.75787 155.234 8.58989 153.672 8.43377C153.342 8.40075 153.1 8.09843 153.132 7.75853ZM102.307 7.82821C102.34 8.16803 102.099 8.47096 101.768 8.50482C100.175 8.66809 98.5914 8.84364 97.0178 9.03037C96.688 9.0695 96.3898 8.82621 96.3518 8.48696C96.3137 8.1477 96.5502 7.84096 96.88 7.80183C98.4596 7.61439 100.05 7.43815 101.649 7.27422C101.98 7.24036 102.274 7.48839 102.307 7.82821ZM162.453 8.82045C162.495 8.48171 162.796 8.24225 163.126 8.28561C164.691 8.49168 166.242 8.70809 167.779 8.93371C168.107 8.98197 168.336 9.29515 168.289 9.63323C168.242 9.9713 167.937 10.2062 167.609 10.158C166.078 9.93319 164.532 9.71758 162.973 9.51229C162.644 9.46893 162.411 9.15918 162.453 8.82045ZM92.7946 8.93698C92.8375 9.27561 92.6055 9.58595 92.2763 9.63014C90.6865 9.84356 89.1091 10.0676 87.5456 10.301C87.2171 10.35 86.9121 10.1158 86.8644 9.77784C86.8167 9.43988 87.0444 9.12614 87.3729 9.0771C88.9419 8.84287 90.5251 8.61805 92.1208 8.40385C92.4499 8.35966 92.7516 8.59835 92.7946 8.93698ZM171.732 10.1644C171.783 9.82699 172.091 9.59647 172.419 9.64946C173.982 9.90215 175.528 10.1635 177.055 10.4323C177.383 10.49 177.602 10.8095 177.546 11.1461C177.49 11.4827 177.18 11.7089 176.853 11.6513C175.331 11.3834 173.79 11.123 172.232 10.8712C171.904 10.8182 171.68 10.5017 171.732 10.1644ZM83.3235 10.3325C83.3757 10.6697 83.1522 10.9866 82.8244 11.0404C81.2343 11.3009 79.661 11.5703 78.106 11.8472C77.7789 11.9055 77.4678 11.6799 77.4112 11.3434C77.3545 11.0069 77.5738 10.6869 77.9009 10.6287C79.4611 10.3508 81.0398 10.0805 82.6353 9.81908C82.9631 9.76536 83.2712 9.9952 83.3235 10.3325ZM180.982 11.7753C181.042 11.4395 181.356 11.2176 181.682 11.2797C183.242 11.5764 184.78 11.8799 186.292 12.1886C186.618 12.255 186.829 12.5804 186.765 12.9154C186.7 13.2504 186.384 13.4681 186.058 13.4016C184.551 13.0939 183.019 12.7915 181.464 12.4958C181.137 12.4337 180.922 12.1112 180.982 11.7753ZM73.8822 11.9964C73.9431 12.3321 73.7279 12.655 73.4015 12.7176C71.8164 13.0218 70.2534 13.3327 68.7143 13.6489C68.3888 13.7157 68.0722 13.4985 68.0071 13.1636C67.9421 12.8287 68.1533 12.503 68.4789 12.4361C70.0228 12.119 71.5909 11.8071 73.181 11.5019C73.5074 11.4393 73.8213 11.6606 73.8822 11.9964ZM190.175 13.6347C190.244 13.3006 190.563 13.0871 190.887 13.1579C192.45 13.4982 193.983 13.8428 195.483 14.1899C195.807 14.2648 196.01 14.5957 195.937 14.9289C195.864 15.2621 195.543 15.4714 195.219 15.3965C193.724 15.0505 192.196 14.707 190.638 14.3677C190.314 14.297 190.106 13.9688 190.175 13.6347ZM64.4944 13.9086C64.5635 14.2426 64.3562 14.571 64.0315 14.642C62.4438 14.9893 60.8857 15.3407 59.3596 15.6946C59.0357 15.7696 58.714 15.5604 58.6411 15.2273C58.5681 14.8942 58.7714 14.5632 59.0953 14.4881C60.626 14.1332 62.1889 13.7807 63.7815 13.4324C64.1062 13.3614 64.4254 13.5746 64.4944 13.9086ZM199.325 15.7355C199.402 15.4033 199.726 15.1981 200.049 15.2772C201.614 15.6606 203.139 16.0448 204.619 16.4274C204.941 16.5106 205.136 16.8466 205.055 17.1778C204.974 17.509 204.648 17.71 204.326 17.6268C202.851 17.2455 201.331 16.8625 199.77 16.4803C199.447 16.4012 199.248 16.0678 199.325 15.7355ZM55.1591 16.0572C55.2359 16.3894 55.0364 16.7228 54.7135 16.8019C53.1201 17.192 51.5678 17.5827 50.0598 17.9715C49.7377 18.0546 49.4113 17.8533 49.3306 17.5221C49.2498 17.1908 49.4454 16.855 49.7675 16.772C51.28 16.382 52.8369 15.9901 54.4351 15.5988C54.7581 15.5198 55.0822 15.725 55.1591 16.0572ZM208.42 18.0703C208.505 17.7402 208.834 17.5433 209.155 17.6307C210.73 18.0595 212.244 18.483 213.693 18.8976C214.013 18.9891 214.2 19.33 214.111 19.659C214.022 19.988 213.691 20.1805 213.371 20.089C211.927 19.6758 210.418 19.2537 208.847 18.8262C208.526 18.7389 208.335 18.4004 208.42 18.0703ZM45.8651 18.4382C45.9497 18.7685 45.758 19.1067 45.4369 19.1937C43.8369 19.6271 42.298 20.055 40.8246 20.4738C40.5046 20.5647 40.1735 20.3716 40.0851 20.0425C39.9967 19.7133 40.1844 19.3727 40.5044 19.2818C41.9823 18.8617 43.5259 18.4325 45.1308 17.9977C45.4518 17.9108 45.7806 18.108 45.8651 18.4382ZM217.467 20.6436C217.56 20.3158 217.894 20.1278 218.212 20.2236C219.82 20.7073 221.321 21.1715 222.706 21.6097C223.023 21.7101 223.201 22.0561 223.104 22.3825C223.006 22.7089 222.67 22.8921 222.352 22.7917C220.972 22.3552 219.477 21.8926 217.875 21.4106C217.556 21.3148 217.374 20.9714 217.467 20.6436ZM36.6312 21.0478C36.7235 21.3758 36.5399 21.7188 36.2211 21.8138C34.5855 22.3013 33.0576 22.7691 31.6457 23.2106C31.328 23.3099 30.9923 23.1256 30.8957 22.7989C30.7992 22.4721 30.9784 22.1267 31.296 22.0274C32.7127 21.5844 34.2457 21.115 35.8865 20.626C36.2054 20.5309 36.5388 20.7198 36.6312 21.0478ZM127.756 56.5726C126.978 56.5726 126.203 56.5755 125.432 56.5813C125.1 56.5838 124.829 56.3089 124.826 55.9674C124.824 55.6259 125.091 55.3471 125.423 55.3446C126.198 55.3388 126.975 55.3359 127.756 55.3359C128.531 55.3359 129.303 55.3388 130.072 55.3445C130.404 55.347 130.671 55.6258 130.669 55.9673C130.666 56.3088 130.395 56.5836 130.063 56.5812C129.297 56.5755 128.528 56.5726 127.756 56.5726ZM134.074 56.0176C134.081 55.6762 134.356 55.4053 134.688 55.4127C136.239 55.447 137.777 55.4925 139.3 55.5485C139.632 55.5607 139.892 55.8473 139.88 56.1885C139.868 56.5298 139.589 56.7966 139.257 56.7844C137.74 56.7286 136.208 56.6833 134.662 56.6491C134.33 56.6417 134.067 56.359 134.074 56.0176ZM121.387 56.0186C121.394 56.36 121.131 56.6428 120.799 56.6502C119.242 56.6848 117.699 56.7308 116.17 56.7873C115.838 56.7996 115.559 56.5329 115.547 56.1916C115.535 55.8503 115.795 55.5637 116.126 55.5514C117.661 55.4947 119.21 55.4486 120.773 55.4138C121.105 55.4064 121.38 55.6772 121.387 56.0186ZM143.281 56.3384C143.297 55.9974 143.58 55.7347 143.911 55.7517C145.466 55.8316 147.004 55.9221 148.526 56.0224C148.857 56.0443 149.108 56.3383 149.087 56.6791C149.066 57.0199 148.78 57.2784 148.449 57.2566C146.933 57.1566 145.4 57.0664 143.851 56.9869C143.52 56.9698 143.264 56.6795 143.281 56.3384ZM112.112 56.3438C112.129 56.6849 111.873 56.9752 111.542 56.9924C109.982 57.0729 108.438 57.1641 106.91 57.2653C106.579 57.2873 106.293 57.0288 106.272 56.688C106.251 56.3472 106.502 56.0532 106.833 56.0312C108.366 55.9296 109.916 55.8381 111.482 55.7572C111.813 55.7401 112.095 56.0027 112.112 56.3438ZM152.487 56.9281C152.513 56.5877 152.802 56.3333 153.133 56.3599C154.685 56.4849 156.218 56.6198 157.732 56.7637C158.062 56.7951 158.306 57.0963 158.275 57.4363C158.244 57.7764 157.952 58.0266 157.621 57.9951C156.113 57.8517 154.586 57.7174 153.04 57.5928C152.709 57.5662 152.461 57.2686 152.487 56.9281ZM102.838 56.9406C102.864 57.281 102.617 57.5787 102.286 57.6054C100.728 57.7313 99.1895 57.8672 97.6702 58.0121C97.3397 58.0437 97.0468 57.7936 97.0162 57.4535C96.9855 57.1135 97.2287 56.8123 97.5592 56.7807C99.084 56.6353 100.628 56.4989 102.192 56.3726C102.522 56.3458 102.812 56.6001 102.838 56.9406ZM161.66 57.7829C161.695 57.4433 161.991 57.1974 162.321 57.2336C163.876 57.4041 165.407 57.5836 166.916 57.7712C167.246 57.8122 167.48 58.1203 167.441 58.4593C167.401 58.7983 167.101 59.04 166.772 58.999C165.269 58.812 163.742 58.6332 162.194 58.4633C161.864 58.4271 161.625 58.1225 161.66 57.7829ZM93.5979 57.8045C93.6332 58.144 93.3942 58.4487 93.0641 58.485C91.5042 58.6566 89.9666 58.8372 88.4523 59.0258C88.1227 59.0669 87.8232 58.8254 87.7833 58.4863C87.7434 58.1473 87.9782 57.8392 88.3077 57.7981C89.8276 57.6088 91.3707 57.4275 92.9364 57.2553C93.2665 57.219 93.5627 57.4649 93.5979 57.8045ZM170.818 58.9042C170.863 58.5658 171.165 58.3285 171.494 58.3743C173.045 58.5899 174.568 58.8135 176.063 59.0437C176.392 59.0943 176.618 59.409 176.569 59.7468C176.52 60.0845 176.214 60.3173 175.885 60.2668C174.396 60.0374 172.878 59.8147 171.333 59.5998C171.004 59.5541 170.774 59.2426 170.818 58.9042ZM84.3718 58.9364C84.4163 59.2748 84.1857 59.5863 83.8568 59.6321C82.301 59.8488 80.7723 60.0734 79.2716 60.3046C78.9432 60.3552 78.6372 60.1224 78.5881 59.7846C78.5389 59.4469 78.7652 59.1321 79.0935 59.0815C80.5997 58.8495 82.134 58.6241 83.6955 58.4066C84.0245 58.3608 84.3272 58.598 84.3718 58.9364ZM179.939 60.2909C179.992 59.9539 180.302 59.7256 180.629 59.781C182.179 60.0429 183.695 60.3111 185.176 60.584C185.502 60.6442 185.72 60.9656 185.661 61.3017C185.603 61.6379 185.29 61.8616 184.964 61.8013C183.488 61.5294 181.978 61.2622 180.434 61.0013C180.107 60.9459 179.885 60.6279 179.939 60.2909ZM75.1842 60.3345C75.238 60.6714 75.0161 60.9895 74.6885 61.0449C73.1336 61.3077 71.6124 61.5768 70.1262 61.8505C69.7994 61.9107 69.4871 61.687 69.4286 61.3508C69.3701 61.0147 69.5876 60.6934 69.9143 60.6332C71.4061 60.3584 72.9329 60.0884 74.4936 59.8246C74.8212 59.7692 75.1304 59.9975 75.1842 60.3345ZM189.013 61.9453C189.076 61.6101 189.392 61.3911 189.718 61.4563C191.272 61.7669 192.782 62.0813 194.247 62.3975C194.572 62.4676 194.78 62.7954 194.712 63.1296C194.643 63.4639 194.325 63.678 194 63.6078C192.541 63.2929 191.036 62.9797 189.488 62.6702C189.162 62.6051 188.95 62.2806 189.013 61.9453ZM66.0423 62.0006C66.1056 62.3358 65.8927 62.6603 65.5668 62.7254C64.0072 63.0368 62.4918 63.3518 61.0221 63.6685C60.6972 63.7385 60.3786 63.5243 60.3106 63.1901C60.2425 62.8558 60.4507 62.5281 60.7757 62.4581C62.251 62.1402 63.7722 61.8239 65.3377 61.5114C65.6636 61.4463 65.9791 61.6653 66.0423 62.0006ZM198.037 63.8747C198.11 63.5415 198.432 63.3325 198.756 63.4077C200.316 63.7702 201.815 64.1321 203.25 64.4904C203.573 64.5709 203.771 64.9052 203.693 65.2371C203.614 65.569 203.289 65.7727 202.967 65.6922C201.537 65.3355 200.045 64.9751 198.491 64.614C198.167 64.5388 197.964 64.2078 198.037 63.8747ZM56.9522 63.941C57.0252 64.2741 56.8218 64.605 56.498 64.6801C54.9321 65.0431 53.4282 65.4053 51.9886 65.7635C51.6659 65.8438 51.3411 65.6399 51.263 65.3079C51.185 64.976 51.3833 64.6418 51.7059 64.5615C53.1515 64.2018 54.6616 63.8381 56.2337 63.4737C56.5575 63.3986 56.8792 63.6078 56.9522 63.941ZM207 66.0922C207.084 65.7617 207.412 65.5636 207.733 65.6496C209.322 66.0751 210.811 66.4899 212.196 66.8884C212.516 66.9804 212.703 67.3216 212.613 67.6504C212.524 67.9793 212.192 68.1714 211.873 68.0794C210.494 67.6828 209.012 67.2699 207.43 66.8464C207.109 66.7604 206.916 66.4227 207 66.0922ZM47.9217 66.1692C48.0051 66.4997 47.8122 66.8372 47.4908 66.923C45.8954 67.3489 44.4013 67.7636 43.0131 68.1614C42.6933 68.253 42.3618 68.0606 42.2727 67.7316C42.1837 67.4026 42.3707 67.0616 42.6905 66.97C44.0854 66.5704 45.5864 66.1537 47.1889 65.726C47.5102 65.6402 47.8383 65.8386 47.9217 66.1692Z" fill="url(#paint8_linear_29_14)"/>
<defs>
<filter id="filter0_d_29_14" x="0.487244" y="26.0632" width="62.0927" height="69.7532" filterUnits="userSpaceOnUse" color-interpolation-filters="sRGB">
<feFlood flood-opacity="0" result="BackgroundImageFix"/>
<feColorMatrix in="SourceAlpha" type="matrix" values="0 0 0 0 0 0 0 0 0 0 0 0 0 0 0 0 0 0 127 0" result="hardAlpha"/>
<feOffset dy="2"/>
<feGaussianBlur stdDeviation="1.5"/>
<feColorMatrix type="matrix" values="0 0 0 0 0.382764 0 0 0 0 0.291629 0 0 0 0 0.207505 0 0 0 0.4 0"/>
<feBlend mode="normal" in2="BackgroundImageFix" result="effect1_dropShadow_29_14"/>
<feBlend mode="normal" in="SourceGraphic" in2="effect1_dropShadow_29_14" result="shape"/>
</filter>
<filter id="filter1_d_29_14" x="192.42" y="26.0632" width="62.0927" height="69.7532" filterUnits="userSpaceOnUse" color-interpolation-filters="sRGB">
<feFlood flood-opacity="0" result="BackgroundImageFix"/>
<feColorMatrix in="SourceAlpha" type="matrix" values="0 0 0 0 0 0 0 0 0 0 0 0 0 0 0 0 0 0 127 0" result="hardAlpha"/>
<feOffset dy="2"/>
<feGaussianBlur stdDeviation="1.5"/>
<feColorMatrix type="matrix" values="0 0 0 0 0.382764 0 0 0 0 0.291629 0 0 0 0 0.207505 0 0 0 0.4 0"/>
<feBlend mode="normal" in2="BackgroundImageFix" result="effect1_dropShadow_29_14"/>
<feBlend mode="normal" in="SourceGraphic" in2="effect1_dropShadow_29_14" result="shape"/>
</filter>
<filter id="filter2_d_29_14" x="25.9067" y="0" width="202.265" height="78.3697" filterUnits="userSpaceOnUse" color-interpolation-filters="sRGB">
<feFlood flood-opacity="0" result="BackgroundImageFix"/>
<feColorMatrix in="SourceAlpha" type="matrix" values="0 0 0 0 0 0 0 0 0 0 0 0 0 0 0 0 0 0 127 0" result="hardAlpha"/>
<feOffset dy="2"/>
<feGaussianBlur stdDeviation="1.5"/>
<feColorMatrix type="matrix" values="0 0 0 0 0.382764 0 0 0 0 0.291629 0 0 0 0 0.207505 0 0 0 0.4 0"/>
<feBlend mode="normal" in2="BackgroundImageFix" result="effect1_dropShadow_29_14"/>
<feBlend mode="normal" in="SourceGraphic" in2="effect1_dropShadow_29_14" result="shape"/>
</filter>
<linearGradient id="paint0_linear_29_14" x1="32.2108" y1="26" x2="32.2108" y2="92" gradientUnits="userSpaceOnUse">
<stop stop-color="#FFA09A"/>
<stop offset="1" stop-color="#E25F5C"/>
</linearGradient>
<linearGradient id="paint1_linear_29_14" x1="32" y1="26" x2="20" y2="50.5" gradientUnits="userSpaceOnUse">
<stop stop-color="white"/>
<stop offset="1" stop-color="white" stop-opacity="0"/>
</linearGradient>
<linearGradient id="paint2_linear_29_14" x1="33.5455" y1="91.073" x2="36.588" y2="25.6879" gradientUnits="userSpaceOnUse">
<stop stop-color="#F77F7A"/>
<stop offset="1" stop-color="#FCC0BE"/>
</linearGradient>
<linearGradient id="paint3_linear_29_14" x1="222.789" y1="26" x2="222.789" y2="92" gradientUnits="userSpaceOnUse">
<stop stop-color="#FFA09A"/>
<stop offset="1" stop-color="#E25F5C"/>
</linearGradient>
<linearGradient id="paint4_linear_29_14" x1="223" y1="26" x2="235" y2="50.5" gradientUnits="userSpaceOnUse">
<stop stop-color="white"/>
<stop offset="1" stop-color="white" stop-opacity="0"/>
</linearGradient>
<linearGradient id="paint5_linear_29_14" x1="221.455" y1="91.073" x2="218.412" y2="25.6879" gradientUnits="userSpaceOnUse">
<stop stop-color="#F77F7A"/>
<stop offset="1" stop-color="#FCC0BE"/>
</linearGradient>
<linearGradient id="paint6_linear_29_14" x1="127.696" y1="1" x2="127.696" y2="75" gradientUnits="userSpaceOnUse">
<stop stop-color="#FFA09A"/>
<stop offset="1" stop-color="#E25F5C"/>
</linearGradient>
<linearGradient id="paint7_linear_29_14" x1="123" y1="-8" x2="122.549" y2="22.0007" gradientUnits="userSpaceOnUse">
<stop stop-color="white" stop-opacity="0.58"/>
<stop offset="1" stop-color="white" stop-opacity="0"/>
</linearGradient>
<linearGradient id="paint8_linear_29_14" x1="129.606" y1="80.688" x2="130.584" y2="-3.02559" gradientUnits="userSpaceOnUse">
<stop stop-color="#F77F7A"/>
<stop offset="1" stop-color="#FCC0BE"/>
</linearGradient>
</defs>
</svg>
